<svg xmlns="http://www.w3.org/2000/svg" viewBox="0 0 256 256" width="256" height="256">
  <desc>Modern Geometric Monogram Logo "IR" for Portfolio</desc>
  <defs>
    <linearGradient id="brand-gradient" x1="0%" y1="100%" x2="100%" y2="0%">
      <stop offset="0%" style="stop-color:#2563eb;stop-opacity:1" /> <stop offset="100%" style="stop-color:#10b981;stop-opacity:1" /> </linearGradient>
  </defs>
  
  <g transform="translate(48, 48) scale(0.625)">
    <path d="M50 0 L50 256 L100 256 L100 146 L130 146 L130 256 L180 256 L180 146 L206 146 L206 0 L50 0 Z" fill="url(#brand-gradient)"/>
    
    <path d="M100 0 L100 110 L180 110 C210.376 110 235 85.376 235 55 C235 24.624 210.376 0 180 0 L100 0 Z M150 36 L180 36 C190.493 36 199 44.507 199 55 C199 65.493 190.493 74 180 74 L150 74 L150 36 Z" fill="#111827"/> 
    </g>
</svg>